<svg id="visual" viewBox="0 0 900 600" width="900" height="600" xmlns="http://www.w3.org/2000/svg" xmlns:xlink="http://www.w3.org/1999/xlink" version="1.1"><g stroke-width="1" stroke-linejoin="bevel"><path d="M423.1 260L403.9 209L403.3 227Z" fill="#246688" stroke="#246688"></path><path d="M528.9 114L394.3 180L403.9 209Z" fill="#081a28" stroke="#081a28"></path><path d="M403.9 209L356.1 211L403.3 227Z" fill="#0c2435" stroke="#0c2435"></path><path d="M423.1 260L557.9 210L403.9 209Z" fill="#15384f" stroke="#15384f"></path><path d="M394.3 180L356.1 211L403.9 209Z" fill="#15384f" stroke="#15384f"></path><path d="M403.3 227L332.1 229L423.1 260Z" fill="#297ea6" stroke="#297ea6"></path><path d="M516.7 286L557.9 210L423.1 260Z" fill="#112e42" stroke="#112e42"></path><path d="M516.7 286L555.7 267L557.9 210Z" fill="#246688" stroke="#246688"></path><path d="M292.5 223L332.1 229L356.1 211Z" fill="#00101c" stroke="#00101c"></path><path d="M356.1 211L332.1 229L403.3 227Z" fill="#205a7a" stroke="#205a7a"></path><path d="M557.9 210L528.9 114L403.9 209Z" fill="#00101c" stroke="#00101c"></path><path d="M643.4 146L573.7 140L557.9 210Z" fill="#205a7a" stroke="#205a7a"></path><path d="M557.9 210L573.7 140L528.9 114Z" fill="#00101c" stroke="#00101c"></path><path d="M573.7 140L547.9 99L528.9 114Z" fill="#00101c" stroke="#00101c"></path><path d="M528.9 114L336.3 50L394.3 180Z" fill="#112e42" stroke="#112e42"></path><path d="M253.5 153L292.5 223L356.1 211Z" fill="#0c2435" stroke="#0c2435"></path><path d="M332.1 229L353.3 352L423.1 260Z" fill="#19435d" stroke="#19435d"></path><path d="M253.5 153L356.1 211L394.3 180Z" fill="#00101c" stroke="#00101c"></path><path d="M293.5 300L353.3 352L332.1 229Z" fill="#246688" stroke="#246688"></path><path d="M423.1 260L540.9 361L516.7 286Z" fill="#246688" stroke="#246688"></path><path d="M353.3 352L540.9 361L423.1 260Z" fill="#081a28" stroke="#081a28"></path><path d="M516.7 286L540.9 361L555.7 267Z" fill="#0c2435" stroke="#0c2435"></path><path d="M292.5 223L293.5 300L332.1 229Z" fill="#112e42" stroke="#112e42"></path><path d="M292.5 223L265.5 266L293.5 300Z" fill="#205a7a" stroke="#205a7a"></path><path d="M689.4 237L643.4 146L557.9 210Z" fill="#19435d" stroke="#19435d"></path><path d="M573.7 140L643.4 146L547.9 99Z" fill="#112e42" stroke="#112e42"></path><path d="M689.4 237L557.9 210L555.7 267Z" fill="#205a7a" stroke="#205a7a"></path><path d="M480.1 -4L336.3 50L528.9 114Z" fill="#0c2435" stroke="#0c2435"></path><path d="M292.5 223L227.3 234L265.5 266Z" fill="#19435d" stroke="#19435d"></path><path d="M336.3 50L253.5 153L394.3 180Z" fill="#15384f" stroke="#15384f"></path><path d="M540.9 361L645.5 326L555.7 267Z" fill="#15384f" stroke="#15384f"></path><path d="M584.7 24L480.1 -4L547.9 99Z" fill="#15384f" stroke="#15384f"></path><path d="M547.9 99L480.1 -4L528.9 114Z" fill="#081a28" stroke="#081a28"></path><path d="M253.5 153L227.3 234L292.5 223Z" fill="#0c2435" stroke="#0c2435"></path><path d="M206.6 366L287.3 395L293.5 300Z" fill="#277297" stroke="#277297"></path><path d="M540.9 361L610.5 389L645.5 326Z" fill="#00101c" stroke="#00101c"></path><path d="M566.5 435L610.5 389L540.9 361Z" fill="#277297" stroke="#277297"></path><path d="M480.1 -4L376.1 0L336.3 50Z" fill="#205a7a" stroke="#205a7a"></path><path d="M336.3 50L305.5 0L253.5 153Z" fill="#246688" stroke="#246688"></path><path d="M643.4 146L584.7 24L547.9 99Z" fill="#081a28" stroke="#081a28"></path><path d="M645.5 326L689.4 237L555.7 267Z" fill="#112e42" stroke="#112e42"></path><path d="M598.7 0L575.9 0L584.7 24Z" fill="#277297" stroke="#277297"></path><path d="M433.1 457L455.1 457L353.3 352Z" fill="#277297" stroke="#277297"></path><path d="M353.3 352L455.1 457L540.9 361Z" fill="#19435d" stroke="#19435d"></path><path d="M328.5 480L433.1 457L353.3 352Z" fill="#205a7a" stroke="#205a7a"></path><path d="M287.3 395L353.3 352L293.5 300Z" fill="#246688" stroke="#246688"></path><path d="M206.6 320L293.5 300L265.5 266Z" fill="#0c2435" stroke="#0c2435"></path><path d="M455.1 457L566.5 435L540.9 361Z" fill="#246688" stroke="#246688"></path><path d="M598.7 0L584.7 24L612.5 0Z" fill="#1d4e6b" stroke="#1d4e6b"></path><path d="M584.7 24L575.9 0L480.1 -4Z" fill="#1d4e6b" stroke="#1d4e6b"></path><path d="M210.6 -23L327.3 0L376.1 0Z" fill="#081a28" stroke="#081a28"></path><path d="M376.1 0L327.3 0L336.3 50Z" fill="#15384f" stroke="#15384f"></path><path d="M689.4 237L704.5 160L643.4 146Z" fill="#297ea6" stroke="#297ea6"></path><path d="M575.9 0L598.7 0L480.1 -4Z" fill="#277297" stroke="#277297"></path><path d="M612.5 0L584.7 24L646.4 0Z" fill="#1d4e6b" stroke="#1d4e6b"></path><path d="M210.6 -23L305.5 0L327.3 0Z" fill="#205a7a" stroke="#205a7a"></path><path d="M327.3 0L305.5 0L336.3 50Z" fill="#1d4e6b" stroke="#1d4e6b"></path><path d="M227.3 234L206.6 320L265.5 266Z" fill="#19435d" stroke="#19435d"></path><path d="M610.5 389L657.4 393L645.5 326Z" fill="#112e42" stroke="#112e42"></path><path d="M761.2 243L753.5 215L689.4 237Z" fill="#1d4e6b" stroke="#1d4e6b"></path><path d="M660.4 425L657.4 393L610.5 389Z" fill="#081a28" stroke="#081a28"></path><path d="M598.7 0L770.2 -8L480.1 -4Z" fill="#0c2435" stroke="#0c2435"></path><path d="M681.4 61L584.7 24L643.4 146Z" fill="#00101c" stroke="#00101c"></path><path d="M704.5 160L681.4 61L643.4 146Z" fill="#112e42" stroke="#112e42"></path><path d="M172.8 160L227.3 234L253.5 153Z" fill="#081a28" stroke="#081a28"></path><path d="M172.8 160L170.5 218L227.3 234Z" fill="#19435d" stroke="#19435d"></path><path d="M227.3 234L163.8 297L206.6 320Z" fill="#081a28" stroke="#081a28"></path><path d="M210.6 -23L172.8 160L253.5 153Z" fill="#1d4e6b" stroke="#1d4e6b"></path><path d="M206.6 320L206.6 366L293.5 300Z" fill="#081a28" stroke="#081a28"></path><path d="M287.3 395L328.5 480L353.3 352Z" fill="#00101c" stroke="#00101c"></path><path d="M153.6 314L206.6 366L206.6 320Z" fill="#1d4e6b" stroke="#1d4e6b"></path><path d="M237.3 482L328.5 480L287.3 395Z" fill="#081a28" stroke="#081a28"></path><path d="M433.1 457L468.9 546L455.1 457Z" fill="#15384f" stroke="#15384f"></path><path d="M566.5 435L660.4 425L610.5 389Z" fill="#081a28" stroke="#081a28"></path><path d="M761.2 243L689.4 237L769.2 272Z" fill="#246688" stroke="#246688"></path><path d="M689.4 237L753.5 215L704.5 160Z" fill="#1d4e6b" stroke="#1d4e6b"></path><path d="M611.7 514L660.4 425L566.5 435Z" fill="#277297" stroke="#277297"></path><path d="M468.9 546L566.5 435L455.1 457Z" fill="#205a7a" stroke="#205a7a"></path><path d="M681.4 61L646.4 0L584.7 24Z" fill="#112e42" stroke="#112e42"></path><path d="M612.5 0L770.2 -8L598.7 0Z" fill="#081a28" stroke="#081a28"></path><path d="M660.4 425L670.7 418L657.4 393Z" fill="#297ea6" stroke="#297ea6"></path><path d="M328.5 480L346.1 496L433.1 457Z" fill="#15384f" stroke="#15384f"></path><path d="M142.6 218L163.8 297L170.5 218Z" fill="#081a28" stroke="#081a28"></path><path d="M170.5 218L163.8 297L227.3 234Z" fill="#205a7a" stroke="#205a7a"></path><path d="M689.4 237L645.5 326L769.2 272Z" fill="#246688" stroke="#246688"></path><path d="M704.5 160L720.5 32L681.4 61Z" fill="#15384f" stroke="#15384f"></path><path d="M769.2 272L645.5 326L719.2 408Z" fill="#0c2435" stroke="#0c2435"></path><path d="M172.8 160L142.6 218L170.5 218Z" fill="#112e42" stroke="#112e42"></path><path d="M81.8 296L153.6 314L163.8 297Z" fill="#0c2435" stroke="#0c2435"></path><path d="M163.8 297L153.6 314L206.6 320Z" fill="#00101c" stroke="#00101c"></path><path d="M719.2 408L645.5 326L657.4 393Z" fill="#112e42" stroke="#112e42"></path><path d="M812.4 216L704.5 160L753.5 215Z" fill="#081a28" stroke="#081a28"></path><path d="M746.4 426L719.2 408L670.7 418Z" fill="#1d4e6b" stroke="#1d4e6b"></path><path d="M670.7 418L719.2 408L657.4 393Z" fill="#246688" stroke="#246688"></path><path d="M346.1 496L468.9 546L433.1 457Z" fill="#1d4e6b" stroke="#1d4e6b"></path><path d="M660.4 425L746.4 426L670.7 418Z" fill="#297ea6" stroke="#297ea6"></path><path d="M856.2 92L720.5 32L704.5 160Z" fill="#277297" stroke="#277297"></path><path d="M681.4 61L720.5 32L646.4 0Z" fill="#19435d" stroke="#19435d"></path><path d="M812.4 216L753.5 215L761.2 243Z" fill="#00101c" stroke="#00101c"></path><path d="M468.9 546L611.7 514L566.5 435Z" fill="#00101c" stroke="#00101c"></path><path d="M328.5 480L315.5 600L346.1 496Z" fill="#19435d" stroke="#19435d"></path><path d="M416.1 600L476.9 575L468.9 546Z" fill="#0c2435" stroke="#0c2435"></path><path d="M206.6 366L237.3 482L287.3 395Z" fill="#0c2435" stroke="#0c2435"></path><path d="M140.8 372L237.3 482L206.6 366Z" fill="#246688" stroke="#246688"></path><path d="M480.1 -4L210.6 -23L376.1 0Z" fill="#112e42" stroke="#112e42"></path><path d="M305.5 0L210.6 -23L253.5 153Z" fill="#205a7a" stroke="#205a7a"></path><path d="M0 220L81.8 296L142.6 218Z" fill="#0c2435" stroke="#0c2435"></path><path d="M770.2 -8L210.6 -23L480.1 -4Z" fill="#081a28" stroke="#081a28"></path><path d="M81.8 296L140.8 372L153.6 314Z" fill="#297ea6" stroke="#297ea6"></path><path d="M153.6 314L140.8 372L206.6 366Z" fill="#112e42" stroke="#112e42"></path><path d="M416.1 600L468.9 546L346.1 496Z" fill="#205a7a" stroke="#205a7a"></path><path d="M468.9 546L540.7 600L611.7 514Z" fill="#19435d" stroke="#19435d"></path><path d="M611.7 514L746.4 426L660.4 425Z" fill="#246688" stroke="#246688"></path><path d="M719.2 408L746.4 426L769.2 272Z" fill="#277297" stroke="#277297"></path><path d="M900 214L812.4 216L900 298Z" fill="#15384f" stroke="#15384f"></path><path d="M769.2 272L812.4 216L761.2 243Z" fill="#15384f" stroke="#15384f"></path><path d="M140.8 372L222.6 516L237.3 482Z" fill="#277297" stroke="#277297"></path><path d="M237.3 482L222.6 516L328.5 480Z" fill="#19435d" stroke="#19435d"></path><path d="M720.5 32L757.2 0L646.4 0Z" fill="#112e42" stroke="#112e42"></path><path d="M646.4 0L770.2 -8L612.5 0Z" fill="#19435d" stroke="#19435d"></path><path d="M856.2 92L757.2 0L720.5 32Z" fill="#246688" stroke="#246688"></path><path d="M142.6 218L81.8 296L163.8 297Z" fill="#1d4e6b" stroke="#1d4e6b"></path><path d="M233.6 598L236.5 585L115.8 577Z" fill="#0c2435" stroke="#0c2435"></path><path d="M0 220L142.6 218L0 171Z" fill="#1d4e6b" stroke="#1d4e6b"></path><path d="M315.5 600L416.1 600L346.1 496Z" fill="#15384f" stroke="#15384f"></path><path d="M476.9 575L516.9 600L468.9 546Z" fill="#112e42" stroke="#112e42"></path><path d="M611.7 514L735.5 600L746.4 426Z" fill="#112e42" stroke="#112e42"></path><path d="M416.1 600L516.9 600L476.9 575Z" fill="#246688" stroke="#246688"></path><path d="M516.9 600L540.7 600L468.9 546Z" fill="#246688" stroke="#246688"></path><path d="M856.2 92L770.2 -8L757.2 0Z" fill="#277297" stroke="#277297"></path><path d="M757.2 0L770.2 -8L646.4 0Z" fill="#246688" stroke="#246688"></path><path d="M557.7 605L612.5 583L611.7 514Z" fill="#081a28" stroke="#081a28"></path><path d="M516.9 600L557.7 605L540.7 600Z" fill="#246688" stroke="#246688"></path><path d="M540.7 600L557.7 605L611.7 514Z" fill="#15384f" stroke="#15384f"></path><path d="M416.1 600L557.7 605L516.9 600Z" fill="#297ea6" stroke="#297ea6"></path><path d="M222.6 516L315.5 600L328.5 480Z" fill="#081a28" stroke="#081a28"></path><path d="M416.1 600L315.5 600L557.7 605Z" fill="#0c2435" stroke="#0c2435"></path><path d="M812.4 216L856.2 92L704.5 160Z" fill="#205a7a" stroke="#205a7a"></path><path d="M900 130L856.2 92L812.4 216Z" fill="#0c2435" stroke="#0c2435"></path><path d="M236.5 585L222.6 516L115.8 577Z" fill="#1d4e6b" stroke="#1d4e6b"></path><path d="M222.6 516L236.5 585L315.5 600Z" fill="#15384f" stroke="#15384f"></path><path d="M236.5 585L252.3 600L315.5 600Z" fill="#00101c" stroke="#00101c"></path><path d="M315.5 600L252.3 600L557.7 605Z" fill="#00101c" stroke="#00101c"></path><path d="M210.6 -23L76.6 0L172.8 160Z" fill="#15384f" stroke="#15384f"></path><path d="M115.8 577L222.6 516L140.8 372Z" fill="#112e42" stroke="#112e42"></path><path d="M236.5 585L233.6 598L252.3 600Z" fill="#246688" stroke="#246688"></path><path d="M900 298L812.4 216L769.2 272Z" fill="#205a7a" stroke="#205a7a"></path><path d="M0 171L142.6 218L0 139Z" fill="#297ea6" stroke="#297ea6"></path><path d="M81.8 296L0 431L140.8 372Z" fill="#1d4e6b" stroke="#1d4e6b"></path><path d="M0 220L0 240L81.8 296Z" fill="#081a28" stroke="#081a28"></path><path d="M900 371L900 298L769.2 272Z" fill="#112e42" stroke="#112e42"></path><path d="M900 371L769.2 272L746.4 426Z" fill="#205a7a" stroke="#205a7a"></path><path d="M0 139L142.6 218L172.8 160Z" fill="#081a28" stroke="#081a28"></path><path d="M-15.2 0L0 240L0 220Z" fill="#081a28" stroke="#081a28"></path><path d="M-15.2 0L-0.2 271L0 240Z" fill="#277297" stroke="#277297"></path><path d="M0 240L-0.2 271L81.8 296Z" fill="#15384f" stroke="#15384f"></path><path d="M900 214L900 130L812.4 216Z" fill="#205a7a" stroke="#205a7a"></path><path d="M856.2 92L900 0L770.2 -8Z" fill="#15384f" stroke="#15384f"></path><path d="M76.6 0L0 139L172.8 160Z" fill="#112e42" stroke="#112e42"></path><path d="M0 171L-15.2 0L0 220Z" fill="#112e42" stroke="#112e42"></path><path d="M-0.2 271L0 312L81.8 296Z" fill="#19435d" stroke="#19435d"></path><path d="M900 450L900 371L746.4 426Z" fill="#112e42" stroke="#112e42"></path><path d="M557.7 605L735.5 600L612.5 583Z" fill="#15384f" stroke="#15384f"></path><path d="M612.5 583L735.5 600L611.7 514Z" fill="#081a28" stroke="#081a28"></path><path d="M557.7 605L737.2 600L735.5 600Z" fill="#15384f" stroke="#15384f"></path><path d="M735.5 600L737.2 600L746.4 426Z" fill="#205a7a" stroke="#205a7a"></path><path d="M0 436L115.8 577L140.8 372Z" fill="#15384f" stroke="#15384f"></path><path d="M900 130L900 0L856.2 92Z" fill="#19435d" stroke="#19435d"></path><path d="M832.4 600L882.2 475L746.4 426Z" fill="#246688" stroke="#246688"></path><path d="M-18.2 -23L0 431L0 312Z" fill="#15384f" stroke="#15384f"></path><path d="M0 312L0 431L81.8 296Z" fill="#15384f" stroke="#15384f"></path><path d="M-18.2 -23L0 436L0 431Z" fill="#081a28" stroke="#081a28"></path><path d="M0 431L0 436L140.8 372Z" fill="#081a28" stroke="#081a28"></path><path d="M882.2 475L900 450L746.4 426Z" fill="#277297" stroke="#277297"></path><path d="M76.6 0L0 0L0 139Z" fill="#00101c" stroke="#00101c"></path><path d="M0 139L-15.2 0L0 171Z" fill="#081a28" stroke="#081a28"></path><path d="M-18.2 -23L0 0L76.6 0Z" fill="#1d4e6b" stroke="#1d4e6b"></path><path d="M900 0L900 -18L770.2 -8Z" fill="#205a7a" stroke="#205a7a"></path><path d="M770.2 -8L900 -18L210.6 -23Z" fill="#205a7a" stroke="#205a7a"></path><path d="M884.2 587L900 474L882.2 475Z" fill="#00101c" stroke="#00101c"></path><path d="M882.2 475L900 474L900 450Z" fill="#00101c" stroke="#00101c"></path><path d="M-18.2 -23L-15.2 0L0 0Z" fill="#081a28" stroke="#081a28"></path><path d="M0 0L-15.2 0L0 139Z" fill="#205a7a" stroke="#205a7a"></path><path d="M-0.2 271L-18.2 -23L0 312Z" fill="#112e42" stroke="#112e42"></path><path d="M74.6 600L90.8 600L115.8 577Z" fill="#1d4e6b" stroke="#1d4e6b"></path><path d="M115.8 577L90.8 600L233.6 598Z" fill="#297ea6" stroke="#297ea6"></path><path d="M233.6 598L90.8 600L252.3 600Z" fill="#0c2435" stroke="#0c2435"></path><path d="M252.3 600L90.8 600L557.7 605Z" fill="#00101c" stroke="#00101c"></path><path d="M210.6 -23L-18.2 -23L76.6 0Z" fill="#205a7a" stroke="#205a7a"></path><path d="M-15.2 0L-18.2 -23L-0.2 271Z" fill="#112e42" stroke="#112e42"></path><path d="M0 436L74.6 600L115.8 577Z" fill="#277297" stroke="#277297"></path><path d="M90.8 600L74.6 600L557.7 605Z" fill="#277297" stroke="#277297"></path><path d="M737.2 600L832.4 600L746.4 426Z" fill="#19435d" stroke="#19435d"></path><path d="M557.7 605L832.4 600L737.2 600Z" fill="#00101c" stroke="#00101c"></path><path d="M832.4 600L884.2 587L882.2 475Z" fill="#297ea6" stroke="#297ea6"></path><path d="M557.7 605L900 600L832.4 600Z" fill="#0c2435" stroke="#0c2435"></path><path d="M832.4 600L900 600L884.2 587Z" fill="#19435d" stroke="#19435d"></path><path d="M884.2 587L900 600L900 474Z" fill="#15384f" stroke="#15384f"></path><path d="M0 436L0 600L74.6 600Z" fill="#246688" stroke="#246688"></path><path d="M74.6 600L0 600L557.7 605Z" fill="#205a7a" stroke="#205a7a"></path><path d="M-18.2 -23L0 600L0 436Z" fill="#297ea6" stroke="#297ea6"></path></g></svg>